<?xml version="1.0" encoding="utf-8"?>
<!-- Generator: Adobe Illustrator 26.0.1, SVG Export Plug-In . SVG Version: 6.00 Build 0)  -->
<!DOCTYPE svg PUBLIC "-//W3C//DTD SVG 1.1//EN" "http://www.w3.org/Graphics/SVG/1.1/DTD/svg11.dtd" [
	<!ENTITY ns_extend "http://ns.adobe.com/Extensibility/1.0/">
	<!ENTITY ns_ai "http://ns.adobe.com/AdobeIllustrator/10.0/">
	<!ENTITY ns_graphs "http://ns.adobe.com/Graphs/1.0/">
	<!ENTITY ns_vars "http://ns.adobe.com/Variables/1.0/">
	<!ENTITY ns_imrep "http://ns.adobe.com/ImageReplacement/1.0/">
	<!ENTITY ns_sfw "http://ns.adobe.com/SaveForWeb/1.0/">
	<!ENTITY ns_custom "http://ns.adobe.com/GenericCustomNamespace/1.0/">
	<!ENTITY ns_adobe_xpath "http://ns.adobe.com/XPath/1.0/">
]>
<svg version="1.1" id="Слой_1" xmlns:x="&ns_extend;" xmlns:i="&ns_ai;" xmlns:graph="&ns_graphs;"
	 xmlns="http://www.w3.org/2000/svg" xmlns:xlink="http://www.w3.org/1999/xlink" x="0px" y="0px" viewBox="0 0 16 16"
	 style="enable-background:new 0 0 16 16;" xml:space="preserve">
<style type="text/css">
	.st0{fill:#F7A635;}
</style>
<metadata>
	<sfw  xmlns="&ns_sfw;">
		<slices></slices>
		<sliceSourceBounds  bottomLeftOrigin="true" height="24.7" width="39.1" x="-23.1" y="-16"></sliceSourceBounds>
	</sfw>
</metadata>
<path class="st0" d="M-17.1-7.7c-1,0.3-2.3,0.8-3,1.6c-1.1,1.2-2,2.4-2,4.4l-1,0c0-2,0.6-3.5,2-5s3-2,5-2v7l-1,0L-17.1-7.7z"/>
<path class="st0" d="M-17.1,6.3c-1-0.3-2.3-0.8-3-1.6c-1.1-1.2-2-2.4-2-4.4l-1,0c0,2,0.6,3.5,2,5s3,2,5,2v-7l-1,0L-17.1,6.3z"/>
<path class="st0" d="M-8.1-2.7c-0.2-1-1-2.5-1.8-3.3c-0.8-0.8-2.2-1.4-3.2-1.7l0,5L-8.1-2.7z M-14.1-1.7l0-7c2,0,3.6,0.5,5,2
	s2,3,2,5H-14.1z"/>
<path class="st0" d="M-13.1,6.3c1-0.3,2.5-0.9,3.3-1.7C-9.4,4.2-8.4,3-8.3,2.3l-4.9,0L-13.1,6.3z M-8.1,1.3c0-1,0,0,0-1h1
	c0,2-0.6,3.5-2,5s-3,2-5,2l0-5l-1,0l0-1h1l0-1l1,0l0,1H-8.1z"/>
<g>
	<path class="st0" d="M15,7h1c0-3.6-3.3-7-7-7l0,1C12.2,1,15,3.8,15,7z"/>
</g>
<g>
	<path class="st0" d="M15,9h1c0,3.6-3.3,7-7,7l0-1C12.2,15,15,12.2,15,9z"/>
</g>
<g>
	<path class="st0" d="M1,9H0c0,3.6,3.3,7,7,7l0-1C3.8,15,1,12.2,1,9z"/>
</g>
<g>
	<path class="st0" d="M1,7H0c0-3.6,3.3-7,7-7l0,1C3.8,1,1,3.8,1,7z"/>
</g>
<rect x="6" y="0.7" class="st0" width="1" height="6.3"/>
<rect x="6" y="9" class="st0" width="1" height="6.3"/>
<rect x="9" y="0.7" class="st0" width="1" height="6.3"/>
<rect x="9" y="9" class="st0" width="1" height="6.6"/>
<rect x="11.7" y="3.3" transform="matrix(6.123234e-17 -1 1 6.123234e-17 5.6539 18.6556)" class="st0" width="1" height="6.3"/>
<rect x="11.2" y="6.8" transform="matrix(6.123234e-17 -1 1 6.123234e-17 1.1841 22.1858)" class="st0" width="1" height="7.4"/>
</svg>
